<svg width="32" height="32" viewBox="0 0 32 32" fill="none" xmlns="http://www.w3.org/2000/svg">
<path d="M26.6667 2.66669H10.6667C9.196 2.66669 8 3.86269 8 5.33335V21.3334C8 22.804 9.196 24 10.6667 24H26.6667C28.1373 24 29.3333 22.804 29.3333 21.3334V5.33335C29.3333 3.86269 28.1373 2.66669 26.6667 2.66669ZM10.6667 21.3334V5.33335H26.6667L26.6693 21.3334H10.6667Z" fill="#D8D7CE"/>
<path d="M5.33334 12C5.33334 11.2636 4.73638 10.6666 4.00001 10.6666C3.26363 10.6666 2.66667 11.2636 2.66667 12V26.6666C2.66667 28.1373 3.86267 29.3333 5.33334 29.3333H20C20.7364 29.3333 21.3333 28.7364 21.3333 28C21.3333 27.2636 20.7364 26.6666 20 26.6666H5.33334V12ZM17.945 14.5171C17.5686 14.969 16.8854 15 16.4695 14.5842L15.8853 14C15.3647 13.4794 14.5206 13.4794 14 14C13.4794 14.5206 13.4794 15.3647 14 15.8853L16.6485 18.5338C17.0643 18.9496 17.7472 18.9186 18.1237 18.467L24.1708 11.2131C24.6427 10.6469 24.5663 9.80538 24.0002 9.33344C23.4339 8.86139 22.5921 8.93796 22.1202 9.50444L17.945 14.5171Z" fill="#D8D7CE"/>
</svg>
