<svg width="32" height="32" viewBox="0 0 32 32" fill="none" xmlns="http://www.w3.org/2000/svg">
<path d="M16 22.6667L17.3333 20V13.144C19.628 12.548 21.3333 10.4774 21.3333 8.00002C21.3333 5.05869 18.9413 2.66669 16 2.66669C13.0587 2.66669 10.6667 5.05869 10.6667 8.00002C10.6667 10.4774 12.372 12.548 14.6667 13.144V20L16 22.6667ZM13.3333 8.00002C13.3333 6.52935 14.5293 5.33335 16 5.33335C17.4707 5.33335 18.6667 6.52935 18.6667 8.00002C18.6667 9.47069 17.4707 10.6667 16 10.6667C14.5293 10.6667 13.3333 9.47069 13.3333 8.00002Z" fill="#D8D7CE"/>
<path d="M22.9605 14.4859C22.2673 14.2372 21.5303 14.6593 21.334 15.3692V15.3692C21.1378 16.0791 21.5577 16.8067 22.2477 17.0645C24.9704 18.082 26.6667 19.6879 26.6667 21.3333C26.6667 23.856 22.2867 26.6666 16 26.6666C9.71333 26.6666 5.33333 23.856 5.33333 21.3333C5.33333 19.6877 7.02995 18.0817 9.75399 17.0633C10.4438 16.8055 10.8636 16.0779 10.6674 15.3681V15.3681C10.4711 14.6582 9.7339 14.2361 9.04063 14.4848C5.07531 15.9079 2.66666 18.4594 2.66666 21.3333C2.66666 25.8186 8.524 29.3333 16 29.3333C23.476 29.3333 29.3333 25.8186 29.3333 21.3333C29.3333 18.4594 26.9247 15.9079 22.9605 14.4859Z" fill="#D8D7CE"/>
</svg>
